<svg xmlns="http://www.w3.org/2000/svg" viewBox="0 0 197 197" version="1"><g color="#000" font-weight="400" font-family="sans-serif" white-space="normal"><path style="line-height:normal;font-variant-ligatures:normal;font-variant-position:normal;font-variant-caps:normal;font-variant-numeric:normal;font-variant-alternates:normal;font-feature-settings:normal;text-indent:0;text-align:start;text-decoration-line:none;text-decoration-style:solid;text-decoration-color:#000;text-transform:none;text-orientation:mixed;shape-padding:0;isolation:auto;mix-blend-mode:normal" d="M48 73a18 18 0 0 1-8 8l43 43 10-6zm56 56l-10 6 22 21a18 18 0 0 1 8-7z" overflow="visible" fill="#a730b8"/><path style="line-height:normal;font-variant-ligatures:normal;font-variant-position:normal;font-variant-caps:normal;font-variant-numeric:normal;font-variant-alternates:normal;font-feature-settings:normal;text-indent:0;text-align:start;text-decoration-line:none;text-decoration-style:solid;text-decoration-color:#000;text-transform:none;text-orientation:mixed;shape-padding:0;isolation:auto;mix-blend-mode:normal" d="M154 90l-24 12 1 12 28-14a18 18 0 0 1-5-10zm-38 19l-58 29a18 18 0 0 1 5 10l54-27z" overflow="visible" fill="#5496be"/><path style="line-height:normal;font-variant-ligatures:normal;font-variant-position:normal;font-variant-caps:normal;font-variant-numeric:normal;font-variant-alternates:normal;font-feature-settings:normal;text-indent:0;text-align:start;text-decoration-line:none;text-decoration-style:solid;text-decoration-color:#000;text-transform:none;text-orientation:mixed;shape-padding:0;isolation:auto;mix-blend-mode:normal" d="M97 38L70 92l8 8 29-57a18 18 0 0 1-10-5zm-35 68l-14 27a18 18 0 0 1 10 5l13-24z" overflow="visible" fill="#ce3d1a"/><path style="line-height:normal;font-variant-ligatures:normal;font-variant-position:normal;font-variant-caps:normal;font-variant-numeric:normal;font-variant-alternates:normal;font-feature-settings:normal;text-indent:0;text-align:start;text-decoration-line:none;text-decoration-style:solid;text-decoration-color:#000;text-transform:none;text-orientation:mixed;shape-padding:0;isolation:auto;mix-blend-mode:normal" d="M40 81a18 18 0 0 1-9 2 18 18 0 0 1-2-1l8 53a18 18 0 0 1 9-2 18 18 0 0 1 2 0z" overflow="visible" fill="#d0188f"/><path style="line-height:normal;font-variant-ligatures:normal;font-variant-position:normal;font-variant-caps:normal;font-variant-numeric:normal;font-variant-alternates:normal;font-feature-settings:normal;text-indent:0;text-align:start;text-decoration-line:none;text-decoration-style:solid;text-decoration-color:#000;text-transform:none;text-orientation:mixed;shape-padding:0;isolation:auto;mix-blend-mode:normal" d="M63 148a18 18 0 0 1 1 4 18 18 0 0 1-2 7l52 9a18 18 0 0 1 0-4 18 18 0 0 1 2-7z" overflow="visible" fill="#5b36e9"/><path style="line-height:normal;font-variant-ligatures:normal;font-variant-position:normal;font-variant-caps:normal;font-variant-numeric:normal;font-variant-alternates:normal;font-feature-settings:normal;text-indent:0;text-align:start;text-decoration-line:none;text-decoration-style:solid;text-decoration-color:#000;text-transform:none;text-orientation:mixed;shape-padding:0;isolation:auto;mix-blend-mode:normal" d="M159 100l-24 47a18 18 0 0 1 10 5l24-47a18 18 0 0 1-10-5z" overflow="visible" fill="#30b873"/><path style="line-height:normal;font-variant-ligatures:normal;font-variant-position:normal;font-variant-caps:normal;font-variant-numeric:normal;font-variant-alternates:normal;font-feature-settings:normal;text-indent:0;text-align:start;text-decoration-line:none;text-decoration-style:solid;text-decoration-color:#000;text-transform:none;text-orientation:mixed;shape-padding:0;isolation:auto;mix-blend-mode:normal" d="M126 33a18 18 0 0 1-8 8l38 37a18 18 0 0 1 8-7z" overflow="visible" fill="#ebe305"/><path style="line-height:normal;font-variant-ligatures:normal;font-variant-position:normal;font-variant-caps:normal;font-variant-numeric:normal;font-variant-alternates:normal;font-feature-settings:normal;text-indent:0;text-align:start;text-decoration-line:none;text-decoration-style:solid;text-decoration-color:#000;text-transform:none;text-orientation:mixed;shape-padding:0;isolation:auto;mix-blend-mode:normal" d="M92 28L45 52a18 18 0 0 1 5 9l47-24a18 18 0 0 1-5-9z" overflow="visible" fill="#f47601"/><path style="line-height:normal;font-variant-ligatures:normal;font-variant-position:normal;font-variant-caps:normal;font-variant-numeric:normal;font-variant-alternates:normal;font-feature-settings:normal;text-indent:0;text-align:start;text-decoration-line:none;text-decoration-style:solid;text-decoration-color:#000;text-transform:none;text-orientation:mixed;shape-padding:0;isolation:auto;mix-blend-mode:normal" d="M118 41a18 18 0 0 1-9 2 18 18 0 0 1-2 0l5 27 11 1zm-4 44l10 64a18 18 0 0 1 9-2 18 18 0 0 1 2 0l-10-60z" overflow="visible" fill="#57c115"/><path style="line-height:normal;font-variant-ligatures:normal;font-variant-position:normal;font-variant-caps:normal;font-variant-numeric:normal;font-variant-alternates:normal;font-feature-settings:normal;text-indent:0;text-align:start;text-decoration-line:none;text-decoration-style:solid;text-decoration-color:#000;text-transform:none;text-orientation:mixed;shape-padding:0;isolation:auto;mix-blend-mode:normal" d="M50 62a18 18 0 0 1 0 3 18 18 0 0 1-2 8l27 4 5-10zm46 7l-6 10 64 10a18 18 0 0 1 0-3 18 18 0 0 1 2-7z" overflow="visible" fill="#dbb210"/></g><g transform="rotate(3 600 106)"><circle cx="106" cy="52" r="17" fill="#ffca00"/><circle cx="171" cy="110" r="17" fill="#64ff00"/><circle cx="136" cy="190" r="17" fill="#00a3ff"/><circle cx="49" cy="181" r="17" fill="#9500ff"/><circle cx="30" cy="95" r="17" fill="red"/></g></svg>