<svg viewBox="0 0 64 64" xmlns="http://www.w3.org/2000/svg"><g fill="none" stroke="#d2c555" stroke-linecap="round" stroke-miterlimit="10" stroke-width="2"><path d="m10.063 45.824a8.088 8.088 0 1 0 8.063 8.088 8.075 8.075 0 0 0 -8.063-8.088z"/><path d="m2.656 22.219h-.469v11.192h.469a27.971 27.971 0 0 1 27.938 27.931v.658h11.156v-.658a39.111 39.111 0 0 0 -39.094-39.123z"/><path d="m2.656 2h-.469v11.191h.469a48.188 48.188 0 0 1 48.094 48.151v.658h11.25v-.658a59.408 59.408 0 0 0 -59.344-59.342z"/></g></svg>