<svg xmlns="http://www.w3.org/2000/svg" viewBox="0 0 64 64" aria-labelledby="title"
aria-describedby="desc" role="img" xmlns:xlink="http://www.w3.org/1999/xlink">
  <title>RSS</title>
  <desc>A line styled icon from Orion Icon Library.</desc>
  <path data-name="layer2"
  d="M10.063 45.824a8.088 8.088 0 1 0 8.063 8.088 8.075 8.075 0 0 0-8.063-8.088z"
  fill="none" stroke="#d2c555" stroke-linecap="round" stroke-miterlimit="10"
  stroke-width="2" stroke-linejoin="miter"></path>
  <path data-name="layer1" d="M2.656 22.219h-.469v11.192h.469a27.971 27.971 0 0 1 27.938 27.931V62H41.75v-.658A39.111 39.111 0 0 0 2.656 22.219z"
  fill="none" stroke="#d2c555" stroke-linecap="round" stroke-miterlimit="10"
  stroke-width="2" stroke-linejoin="miter"></path>
  <path data-name="layer1" d="M2.656 2h-.469v11.191h.469A48.188 48.188 0 0 1 50.75 61.342V62H62v-.658A59.408 59.408 0 0 0 2.656 2z"
  fill="none" stroke="#d2c555" stroke-linecap="round" stroke-miterlimit="10"
  stroke-width="2" stroke-linejoin="miter"></path>
</svg>