<?xml version="1.0" encoding="UTF-8" standalone="no"?><svg viewBox="0 0 1892 567" xmlns="http://www.w3.org/2000/svg" fill-rule="evenodd" clip-rule="evenodd" stroke-linejoin="round" stroke-miterlimit="2"><g fill="#79ba3a" fill-rule="nonzero"><path d="M503 417c-12 0-19-8-19-26s11-95 16-130c8-66-30-113-85-113-43 0-76 17-102 44-18-26-38-44-76-44s-61 13-84 35c-12-24-34-35-67-35-27 0-64 13-86 27l24 55c17-9 31-16 43-16s20 9 18 29L60 476h74l20-179c6-49 29-80 63-80 29 0 39 24 37 51l-23 208h74l21-191c7-50 39-68 59-68 33 0 43 27 40 53-3 20-12 93-15 131-3 47 19 81 61 81 27 0 55-7 74-18l-16-55c-9 4-18 8-26 8zM876 454c-2 28-11 41-32 41-10 0-23-4-34-8l-28 63c16 9 50 17 72 17 72 0 90-55 98-128l29-287-75 21-30 281zM957 2c-28 0-49 24-51 50-1 25 16 49 44 49 26 0 49-24 51-49 2-26-17-50-44-50zM1173 212c21 0 32 13 32 30 0 44-55 63-111 60 9-48 43-90 79-90zm-16 205c-36 0-57-26-64-63 119 8 184-41 184-113 0-58-53-93-102-93-94 0-160 78-160 181 0 92 48 153 131 153 54 0 97-24 132-67l-40-44c-24 24-48 46-81 46zM1467 212c20 0 31 13 31 30 0 44-54 63-111 60 9-48 44-90 80-90zm-16 205c-36 0-57-26-64-63 118 8 184-41 184-113 0-58-54-93-102-93-95 0-161 78-161 181 0 92 49 153 132 153 53 0 97-24 131-67l-39-44c-24 24-48 46-81 46zM1872 412c-8 3-16 5-25 5-26 0-37-21-47-46-9-20-24-61-36-96l116-120h-90l-100 100 25-241-75 21-44 439h72l12-116 28-29 25 65c21 55 44 88 94 88 20 0 43-5 61-14l-16-56zM685 417c-32 0-56-28-56-83 0-71 34-120 77-120 39 0 55 47 55 91 0 68-37 112-76 112zm156-116c0-78-48-153-135-153-91 0-156 80-156 182 0 98 53 152 132 152 102 0 159-89 159-181z"/></g></svg>